<svg width="231" height="103" viewBox="0 0 231 103" fill="none" xmlns="http://www.w3.org/2000/svg">
<path fill-rule="evenodd" clip-rule="evenodd" d="M48.6797 81.3801C70.8172 89.1617 95.2952 78.1406 103.353 56.7653C111.41 35.389 99.9948 11.7527 77.8553 3.97203C55.7178 -3.80958 31.2398 7.21158 23.1824 28.5878C15.126 49.9632 26.5411 73.5995 48.6797 81.3801Z" stroke="#2F3647" stroke-width="2.44571"/>
<mask id="mask0" mask-type="alpha" maskUnits="userSpaceOnUse" x="18" y="13" width="184" height="87">
<path d="M201.195 99.3601H18.2901C18.2901 78.5524 26.1526 59.4704 39.2414 44.5994C40.842 42.7687 41.3104 40.2625 40.3822 38.075C39.5469 36.1021 39.2021 33.8869 39.5 31.5734C40.3133 25.319 45.8921 20.4001 52.5821 20.0166C55.8389 19.8316 58.8669 20.6835 61.3421 22.2595C63.4102 23.5808 66.1077 23.7353 68.3463 22.6707C80.775 16.7291 94.8447 13.3796 109.742 13.3796C160.25 13.3796 201.195 51.8756 201.195 99.3601Z" fill="white"/>
</mask>
<g mask="url(#mask0)">
<path fill-rule="evenodd" clip-rule="evenodd" d="M205.984 103.788H13.4997V8.94824H205.984V103.788Z" fill="#515867"/>
</g>
<mask id="mask1" mask-type="alpha" maskUnits="userSpaceOnUse" x="58" y="7" width="7" height="8">
<path d="M64.2891 11.2101C64.2891 13.1356 62.9446 14.6974 61.2866 14.6974C59.6304 14.6974 58.2851 13.1356 58.2851 11.2101C58.2851 9.28464 59.6304 7.72388 61.2866 7.72388C62.9446 7.72388 64.2891 9.28464 64.2891 11.2101Z" fill="white"/>
</mask>
<g mask="url(#mask1)">
<path fill-rule="evenodd" clip-rule="evenodd" d="M68.8872 19.9537H53.6883V2.46997H68.8872V19.9537Z" fill="#515867"/>
</g>
<mask id="mask2" mask-type="alpha" maskUnits="userSpaceOnUse" x="88" y="38" width="121" height="63">
<path d="M183.895 50.382C184.845 51.1049 186.116 51.1883 187.136 50.5785C188.921 49.5125 191.04 48.9862 193.297 49.2249C198.138 49.7359 202.035 53.8466 202.473 58.8911C202.705 61.605 201.967 64.1301 200.571 66.1366C199.895 67.1116 199.874 68.4307 200.456 69.4756C205.612 78.6845 208.572 89.3965 208.572 100.83H88.7541C88.7541 66.3811 115.579 38.4573 148.66 38.4573C161.829 38.4573 174.007 42.8834 183.895 50.382Z" fill="white"/>
</mask>
<g mask="url(#mask2)">
<path fill-rule="evenodd" clip-rule="evenodd" d="M212.846 105.204H84.4802V34.0781H212.846V105.204Z" fill="#626A7B"/>
</g>
<path d="M63.8288 91.3675C63.8288 87.1157 67.4267 83.6636 71.8582 83.6636C76.2897 83.6636 79.8877 87.1157 79.8877 91.3675C79.8877 95.6192 76.2897 99.0713 71.8582 99.0713H67.8435C63.412 99.0713 59.814 95.6192 59.814 91.3675H63.8288Z" fill="#151F33"/>
<path d="M118.062 91.3675C118.062 87.1157 121.66 83.6636 126.092 83.6636C130.523 83.6636 134.121 87.1157 134.121 91.3675C134.121 95.6192 130.523 99.0713 126.092 99.0713H122.077C117.645 99.0713 114.047 95.6192 114.047 91.3675H118.062Z" fill="#151F33"/>
<path d="M56.7579 91.3702H145.916L137.886 79.801H41.7408C40.1432 79.801 39.1847 81.5204 40.0738 82.7999C43.7829 88.158 50.0481 91.3702 56.7579 91.3702Z" fill="#151F33"/>
<path d="M107.796 47.0906H129.648L140.414 79.7988H93.557L102.531 51.1958C103.059 48.7966 105.254 47.0906 107.796 47.0906Z" fill="#00D170"/>
<path d="M107.727 50.5278H127.12C130.273 50.5278 129.467 52.5271 130.356 55.4327L136.469 75.3855C137.149 77.5847 135.427 79.7973 133.024 79.7973H97.4189L105.962 51.914C106.143 51.1143 106.879 50.5278 107.727 50.5278Z" fill="#151F33"/>
<path d="M77.8871 79.7985H112.505L118.785 51.1955C119.312 48.8097 121.507 47.0903 124.05 47.0903H132.635C140.47 47.0903 147.388 51.9552 149.749 59.126L156.556 79.7985H169.587C170.934 79.7985 172.185 80.4383 172.935 81.5179L175.616 85.3698C177.394 87.9289 175.477 91.3677 172.268 91.3677H92.8902C86.1805 91.3677 79.9292 88.1555 76.2061 82.7974C75.331 81.5179 76.2895 79.7985 77.8871 79.7985Z" fill="#00D170"/>
<path d="M124.064 50.5278H132.274C135.427 50.5278 138.206 52.5271 139.095 55.4327L145.207 75.3855C145.888 77.5847 144.165 79.7973 141.762 79.7973H118.563C117.423 79.7973 116.576 78.7976 116.798 77.7313L122.202 51.9806C122.397 51.1409 123.161 50.5278 124.064 50.5278Z" fill="#151F33"/>
<path d="M104.004 99.0726C99.5692 99.0726 95.9743 95.6234 95.9743 91.3687C95.9743 87.1139 99.5692 83.6648 104.004 83.6648C108.438 83.6648 112.033 87.1139 112.033 91.3687C112.033 95.6234 108.438 99.0726 104.004 99.0726Z" fill="#818281"/>
<path d="M95.9611 91.3687C95.9611 87.1169 99.5591 83.6648 103.991 83.6648C108.422 83.6648 112.02 87.1169 112.02 91.3687C112.02 95.6205 108.422 99.0726 103.991 99.0726H99.9758C95.5443 99.0726 91.9464 95.6205 91.9464 91.3687H95.9611Z" fill="#151F33"/>
<path d="M104.004 95.2197C101.787 95.2197 99.9891 93.4952 99.9891 91.3678C99.9891 89.2404 101.787 87.5159 104.004 87.5159C106.221 87.5159 108.019 89.2404 108.019 91.3678C108.019 93.4952 106.221 95.2197 104.004 95.2197Z" fill="white"/>
<path d="M106.004 91.3678C106.004 89.5685 104.726 88.0757 102.989 87.6492C103.309 87.5692 103.642 87.5159 103.99 87.5159C106.212 87.5159 108.004 89.2352 108.004 91.3678C108.004 93.5004 106.212 95.2197 103.99 95.2197C103.642 95.2197 103.309 95.1664 102.989 95.0865C104.726 94.6466 106.004 93.1538 106.004 91.3678Z" fill="#00D170"/>
<path d="M150.194 91.3687C150.194 87.1169 153.792 83.6648 158.223 83.6648C162.655 83.6648 166.253 87.1169 166.253 91.3687C166.253 95.6205 162.655 99.0726 158.223 99.0726H154.209C149.777 99.0726 146.179 95.6205 146.179 91.3687H150.194Z" fill="#151F33"/>
<path d="M158.237 95.2197C156.02 95.2197 154.222 93.4952 154.222 91.3678C154.222 89.2404 156.02 87.5159 158.237 87.5159C160.454 87.5159 162.252 89.2404 162.252 91.3678C162.252 93.4952 160.454 95.2197 158.237 95.2197Z" fill="white"/>
<path d="M160.238 91.3678C160.238 89.5685 158.96 88.0757 157.223 87.6492C157.543 87.5692 157.876 87.5159 158.224 87.5159C160.446 87.5159 162.238 89.2352 162.238 91.3678C162.238 93.5004 160.446 95.2197 158.224 95.2197C157.876 95.2197 157.543 95.1664 157.223 95.0865C158.96 94.6466 160.238 93.1538 160.238 91.3678Z" fill="#00D170"/>
<path d="M49.7702 83.6521H69.8578C70.9691 83.6521 71.8721 84.5185 71.8721 85.5847C71.8721 86.651 70.9691 87.5174 69.8578 87.5174H49.7702C48.6589 87.5174 47.7559 86.651 47.7559 85.5847C47.7559 84.5185 48.6589 83.6521 49.7702 83.6521Z" fill="white"/>
<path d="M49.7699 83.6521H53.7847C52.6733 83.6521 51.7704 84.5185 51.7704 85.5847C51.7704 86.651 52.6733 87.5174 53.7847 87.5174H49.7699C48.6586 87.5174 47.7556 86.651 47.7556 85.5847C47.7556 84.5185 48.6586 83.6521 49.7699 83.6521Z" fill="#00D170"/>
<mask id="mask3" mask-type="alpha" maskUnits="userSpaceOnUse" x="210" y="64" width="6" height="6">
<path d="M215.56 67.2869C215.56 68.6504 214.471 69.755 213.127 69.755C211.783 69.755 210.694 68.6504 210.694 67.2869C210.694 65.9234 211.783 64.8198 213.127 64.8198C214.471 64.8198 215.56 65.9234 215.56 67.2869Z" fill="white"/>
</mask>
<g mask="url(#mask3)">
<path fill-rule="evenodd" clip-rule="evenodd" d="M220.464 74.658H205.79V59.9124H220.464V74.658Z" fill="#515867"/>
</g>
<mask id="mask4" mask-type="alpha" maskUnits="userSpaceOnUse" x="0" y="98" width="231" height="5">
<path d="M222.772 98.7024C225.799 98.7024 228.67 100.004 230.558 102.24H0.0364227C1.93234 100.004 4.79541 98.7024 7.82237 98.7024H222.772Z" fill="white"/>
</mask>
<g mask="url(#mask4)">
<path fill-rule="evenodd" clip-rule="evenodd" d="M235.206 106.655H-4.61024V94.2896H235.206V106.655Z" fill="#2F3647"/>
</g>
<mask id="mask5" mask-type="alpha" maskUnits="userSpaceOnUse" x="11" y="33" width="16" height="15">
<path d="M17.1808 33.4145L19.6225 35.2789L22.2898 33.7838C22.7012 33.5521 23.1897 33.5086 23.6343 33.6614C24.0808 33.8151 24.4247 34.1419 24.6191 34.5445C24.8146 34.9461 24.8615 35.4276 24.7139 35.8879L23.7554 38.8722L25.9528 41.0421C26.2919 41.3779 26.4824 41.8432 26.4805 42.3288C26.4775 42.8154 26.2841 43.2544 25.9733 43.5701C25.6636 43.8867 25.2366 44.0809 24.7677 44.0779L21.7339 44.0566L20.4236 46.8902C20.2204 47.3292 19.8521 47.662 19.4036 47.8087C18.9551 47.9554 18.493 47.9008 18.107 47.6924C17.725 47.488 17.4172 47.135 17.2736 46.6808L16.2477 43.651L13.3439 43.2494C12.8778 43.1846 12.4586 42.9247 12.186 42.5301C11.9115 42.1346 11.8196 41.6632 11.89 41.2181C11.9613 40.773 12.1958 40.3562 12.5778 40.0729L15.0459 38.2419L14.4978 35.1484C14.4128 34.671 14.5232 34.1773 14.8026 33.7858C15.0811 33.3943 15.4866 33.1566 15.9174 33.0888C16.0005 33.0767 16.0865 33.0696 16.1705 33.0696C16.5222 33.0696 16.8769 33.1819 17.1808 33.4145Z" fill="white"/>
</mask>
<g mask="url(#mask5)">
<path fill-rule="evenodd" clip-rule="evenodd" d="M35.2759 38.3627L18.107 23.4465L4.05099 40.7885L21.2209 55.7057L35.2759 38.3627Z" fill="#515867"/>
</g>
<mask id="mask6" mask-type="alpha" maskUnits="userSpaceOnUse" x="11" y="33" width="16" height="15">
<path d="M17.1808 33.4145L19.6225 35.2789L22.2898 33.7838C22.7012 33.5521 23.1897 33.5086 23.6343 33.6614C24.0808 33.8151 24.4247 34.1419 24.6191 34.5445C24.8146 34.9461 24.8615 35.4276 24.7139 35.8879L23.7554 38.8722L25.9528 41.0421C26.2919 41.3779 26.4824 41.8432 26.4805 42.3288C26.4775 42.8154 26.2841 43.2544 25.9733 43.5701C25.6636 43.8867 25.2366 44.0809 24.7677 44.0779L21.7339 44.0566L20.4236 46.8902C20.2204 47.3292 19.8521 47.662 19.4036 47.8087C18.9551 47.9554 18.493 47.9008 18.107 47.6924C17.725 47.488 17.4172 47.135 17.2736 46.6808L16.2477 43.651L13.3439 43.2494C12.8778 43.1846 12.4586 42.9247 12.186 42.5301C11.9115 42.1346 11.8196 41.6632 11.89 41.2181C11.9613 40.773 12.1958 40.3562 12.5778 40.0729L15.0459 38.2419L14.4978 35.1484C14.4128 34.671 14.5232 34.1773 14.8026 33.7858C15.0811 33.3943 15.4866 33.1566 15.9174 33.0888C16.0005 33.0767 16.0865 33.0696 16.1705 33.0696C16.5222 33.0696 16.8769 33.1819 17.1808 33.4145Z" fill="white"/>
</mask>
<g mask="url(#mask6)">
<path fill-rule="evenodd" clip-rule="evenodd" d="M35.2759 38.3627L18.107 23.4465L4.05099 40.7885L21.2209 55.7057L35.2759 38.3627Z" stroke="#515867" stroke-width="3.05714"/>
</g>
<path fill-rule="evenodd" clip-rule="evenodd" d="M16.1808 43.3024L17.2138 46.0086C17.3584 46.4144 17.6683 46.7299 18.052 46.9134C18.4415 47.0987 18.9068 47.1475 19.3574 47.0164C19.8089 46.8853 20.1808 46.588 20.3845 46.1966L21.7047 43.6639L24.7593 43.6829C25.2315 43.6865 25.6614 43.513 25.9733 43.2301C26.2851 42.9471 26.4809 42.5549 26.4839 42.1201C26.4868 41.6862 26.2939 41.2704 25.9526 40.9704L23.7401 39.0324L24.7042 36.366C24.8527 35.9538 24.8065 35.5245 24.6097 35.1647C24.413 34.805 24.0677 34.5131 23.6191 34.3766C23.1695 34.2392 22.6786 34.2789 22.2644 34.4859L19.5778 35.821L17.1203 34.1551C16.7396 33.8966 16.2821 33.8053 15.8483 33.865C15.4144 33.9246 15.0062 34.137 14.7258 34.4868C14.4445 34.8366 14.3333 35.2777 14.4189 35.7053L14.9708 38.4684L12.4848 40.1044C12.1011 40.3584 11.864 40.7299 11.7932 41.1276C11.7224 41.5253 11.8158 41.9465 12.0913 42.3009C12.3658 42.6534 12.7878 42.8857 13.2561 42.9435L16.1808 43.3024Z" stroke="#2F3647" stroke-width="3.05714"/>
<mask id="mask7" mask-type="alpha" maskUnits="userSpaceOnUse" x="201" y="36" width="12" height="12">
<path d="M208.832 37.8089L209.379 40.0513L211.64 40.5133C211.99 40.585 212.294 40.7978 212.482 41.1009C212.669 41.404 212.715 41.7552 212.64 42.077C212.564 42.3987 212.364 42.6911 212.061 42.8794L210.099 44.0909L210.36 46.3814C210.402 46.7365 210.293 47.0926 210.062 47.3643C209.83 47.637 209.511 47.7901 209.182 47.8165C208.857 47.843 208.522 47.7479 208.251 47.5223L206.411 46.0538L204.384 46.9768C204.059 47.124 203.688 47.1309 203.359 46.9965C203.028 46.8611 202.784 46.6041 202.656 46.3C202.529 45.9939 202.517 45.6398 202.652 45.3112L203.527 43.1756L201.969 41.4727C201.727 41.2098 201.606 40.8586 201.633 40.5026C201.661 40.1465 201.829 39.8355 202.078 39.6197C202.331 39.4049 202.663 39.2842 203.019 39.3107L205.318 39.4853L206.452 37.4793C206.628 37.1693 206.925 36.9446 207.271 36.8603C207.375 36.8348 207.477 36.823 207.578 36.823C207.819 36.823 208.049 36.8897 208.248 37.0113C208.532 37.183 208.749 37.4626 208.832 37.8089Z" fill="white"/>
</mask>
<g mask="url(#mask7)">
<path fill-rule="evenodd" clip-rule="evenodd" d="M216.729 35.2627L199.861 32.9182L197.574 49.3766L214.443 51.7201L216.729 35.2627Z" fill="#515867"/>
</g>
<mask id="mask8" mask-type="alpha" maskUnits="userSpaceOnUse" x="118" y="3" width="10" height="9">
<path d="M120.618 3.37398L122.72 4.83511C122.833 4.9128 122.981 4.9234 123.104 4.86071L125.401 3.68916C125.487 3.64502 125.59 3.63619 125.685 3.66532C125.873 3.72448 125.975 3.91694 125.912 4.09351L125.088 6.4322C125.044 6.55668 125.08 6.69352 125.181 6.78446L127.072 8.48484C127.143 8.54929 127.184 8.63846 127.184 8.73204C127.182 8.91832 127.021 9.06929 126.821 9.06753L124.211 9.05164C124.071 9.05075 123.944 9.12403 123.885 9.24322L122.757 11.4654C122.714 11.5492 122.635 11.6137 122.541 11.6419C122.352 11.6976 122.15 11.5996 122.091 11.4212L121.301 9.07282C121.259 8.94834 121.144 8.85652 121.006 8.83887L118.417 8.51309C118.319 8.50073 118.232 8.45129 118.173 8.37537C118.057 8.22352 118.095 8.01163 118.257 7.90216L120.379 6.46751C120.493 6.3907 120.549 6.26004 120.524 6.13115L120.052 3.70682C120.035 3.615 120.058 3.52054 120.117 3.44549C120.187 3.35456 120.295 3.30688 120.406 3.30688C120.48 3.30688 120.555 3.32984 120.618 3.37398Z" fill="white"/>
</mask>
<g mask="url(#mask8)">
<path fill-rule="evenodd" clip-rule="evenodd" d="M133.241 6.15743L121.972 -2.75854L112.779 7.57265L124.048 16.4877L133.241 6.15743Z" fill="#515867"/>
</g>
<mask id="mask9" mask-type="alpha" maskUnits="userSpaceOnUse" x="184" y="29" width="7" height="8">
<path d="M187.47 30.1943L188.273 31.1002C188.424 31.2712 188.661 31.3393 188.879 31.274L190.041 30.9319C190.196 30.8859 190.365 30.907 190.504 30.9889C190.785 31.1526 190.88 31.514 190.715 31.7945L190.102 32.8401C189.987 33.0378 189.995 33.2825 190.124 33.4701L190.808 34.4716C190.9 34.6058 190.932 34.7723 190.898 34.9305C190.827 35.2487 190.514 35.4482 190.195 35.3792L189.014 35.119C188.791 35.0693 188.559 35.1539 188.421 35.3351L187.682 36.2943C187.583 36.423 187.436 36.5058 187.274 36.5214C186.95 36.5527 186.661 36.3164 186.63 35.9927L186.512 34.7861C186.489 34.5598 186.339 34.3658 186.123 34.2895L184.982 33.8821C184.83 33.8278 184.706 33.7129 184.641 33.5639C184.51 33.2659 184.647 32.9192 184.944 32.7886L186.055 32.303C186.264 32.2111 186.401 32.0078 186.408 31.7807L186.442 30.5686C186.446 30.4058 186.517 30.2522 186.638 30.1446C186.751 30.0453 186.89 29.9966 187.029 29.9966C187.191 29.9966 187.354 30.0637 187.47 30.1943Z" fill="white"/>
</mask>
<g mask="url(#mask9)">
<path fill-rule="evenodd" clip-rule="evenodd" d="M192.642 23.0249L177.867 28.403L183.157 42.9352L197.931 37.5571L192.642 23.0249Z" fill="#515867"/>
</g>
</svg>
