<svg width="136" height="78" viewBox="0 0 136 78" fill="none" xmlns="http://www.w3.org/2000/svg">
<g clip-path="url(#clip0)">
<path fill-rule="evenodd" clip-rule="evenodd" d="M38.5452 25.6415L42.9238 8.82617H49.5569L45.9258 22.7449C45.7117 23.5741 45.2281 24.3087 44.5509 24.833C43.8737 25.3574 43.0415 25.6418 42.185 25.6415H38.5452ZM136 8.82617H129.234V36.1969H136V8.82617ZM73.1208 39.1385C72.8006 38.8161 72.4217 38.5579 72.0046 38.3778C71.5732 38.1953 71.1095 38.1012 70.6411 38.1012C70.1727 38.1012 69.709 38.1953 69.2776 38.3778C68.4328 38.7409 67.7594 39.4143 67.3962 40.2591C67.2138 40.6908 67.1198 41.1547 67.1198 41.6234C67.1198 42.092 67.2138 42.5559 67.3962 42.9876C67.7581 43.8333 68.4319 44.5071 69.2776 44.869C69.7092 45.0508 70.1728 45.1445 70.6411 45.1445C71.1094 45.1445 71.573 45.0508 72.0046 44.869C72.8503 44.5071 73.5241 43.8333 73.886 42.9876C74.0684 42.5559 74.1625 42.092 74.1625 41.6234C74.1625 41.1547 74.0684 40.6908 73.886 40.2591C73.7061 39.8409 73.4484 39.4606 73.1267 39.1385H73.1208ZM84.8792 15.6069C84.4597 15.4285 84.0787 15.1707 83.7571 14.8477V14.8491C83.4342 14.5274 83.1764 14.1464 82.9978 13.727C82.8117 13.2968 82.7175 12.8323 82.7213 12.3635C82.7175 11.8947 82.8117 11.4303 82.9978 11C83.3597 10.1543 84.0335 9.48055 84.8792 9.11867C85.3106 8.93616 85.7742 8.84211 86.2427 8.84211C86.7111 8.84211 87.1747 8.93616 87.6062 9.11867C88.4516 9.4802 89.1253 10.1534 89.4875 10.9986C89.6728 11.4291 89.767 11.8934 89.764 12.3621C89.7673 12.8308 89.6731 13.2951 89.4875 13.7256C89.1256 14.5713 88.4519 15.2451 87.6062 15.6069C87.1747 15.7895 86.7111 15.8835 86.2427 15.8835C85.7742 15.8835 85.3106 15.7895 84.8792 15.6069ZM65.0748 39.1384C64.7544 38.8163 64.3756 38.5581 63.9586 38.3777C63.5269 38.1952 63.063 38.1012 62.5943 38.1012C62.1257 38.1012 61.6618 38.1952 61.2301 38.3777C60.3853 38.7408 59.7119 39.4142 59.3487 40.2591C59.1672 40.691 59.0737 41.1548 59.0737 41.6233C59.0737 42.0918 59.1672 42.5556 59.3487 42.9875C59.7106 43.8332 60.3844 44.507 61.2301 44.8689C61.662 45.0504 62.1258 45.1439 62.5943 45.1439C63.0628 45.1439 63.5266 45.0504 63.9586 44.8689C64.3768 44.689 64.7571 44.4313 65.0792 44.1096C65.4019 43.7877 65.6596 43.4068 65.8385 42.9875C66.0219 42.5561 66.1165 42.0921 66.1165 41.6233C66.1165 41.1545 66.0219 40.6905 65.8385 40.2591C65.6596 39.8403 65.4018 39.4598 65.0792 39.1384H65.0748ZM55.9117 38.3778C56.3291 38.5581 56.7084 38.8163 57.0294 39.1385H57.0338C57.3555 39.4606 57.6131 39.8409 57.793 40.2591C57.9755 40.6908 58.0695 41.1547 58.0695 41.6234C58.0695 42.092 57.9755 42.5559 57.793 42.9876C57.4312 43.8333 56.7574 44.5071 55.9117 44.869C55.4801 45.0508 55.0165 45.1445 54.5482 45.1445C54.0798 45.1445 53.6163 45.0508 53.1847 44.869C52.339 44.5065 51.665 43.833 51.3018 42.9876C51.1203 42.5557 51.0268 42.0919 51.0268 41.6234C51.0268 41.1549 51.1203 40.6911 51.3018 40.2591C51.6661 39.4145 52.3398 38.7414 53.1847 38.3778C53.6161 38.1953 54.0797 38.1012 54.5482 38.1012C55.0166 38.1012 55.4803 38.1953 55.9117 38.3778ZM120.248 17.4296V25.6354C120.263 26.3484 120.199 27.0608 120.058 27.7597C120.054 27.7771 120.048 27.7933 120.043 27.8094C120.038 27.8244 120.033 27.8392 120.03 27.8548C119.871 28.2324 119.646 28.5791 119.367 28.8788C119.091 29.1726 118.758 29.4057 118.387 29.5635C118.029 29.7175 117.644 29.8 117.255 29.8064H98.3676C98.0716 29.7854 97.781 29.7162 97.5074 29.6015C97.1546 29.4833 96.8352 29.2827 96.5754 29.0164C96.2331 28.657 95.9993 28.2081 95.901 27.7216C95.8108 27.2968 95.7555 26.8652 95.7357 26.4313V17.3814H89.4449V26.1592C89.4603 26.8722 89.396 27.5847 89.2533 28.2834C89.2533 28.2975 89.2485 28.3099 89.2436 28.3226C89.2419 28.327 89.2402 28.3315 89.2387 28.3361C89.2328 28.3536 89.2138 28.4078 89.2065 28.4224C89.0488 28.7845 88.8312 29.1173 88.5628 29.407C88.2857 29.6998 87.9516 29.9328 87.5811 30.0916C87.2232 30.2443 86.8393 30.3267 86.4502 30.3345H86.2045C85.8154 30.3269 85.4315 30.2444 85.0736 30.0916C84.7032 29.9333 84.3695 29.7002 84.0934 29.407C83.8137 29.1072 83.5888 28.7606 83.4292 28.3829C83.4267 28.3734 83.424 28.3643 83.4213 28.3553L83.4169 28.3414C83.4112 28.3234 83.4056 28.3056 83.4014 28.2863C83.2593 27.588 83.1955 26.876 83.2112 26.1636V17.3858H76.9204V27.489C76.9167 27.5096 76.913 27.5304 76.9093 27.5513C76.9002 27.6033 76.891 27.6559 76.8795 27.707C76.7809 28.1931 76.5477 28.6417 76.2065 29.0017C75.9457 29.2667 75.6266 29.4671 75.2746 29.5869C75.0001 29.7003 74.7092 29.769 74.4129 29.7903H52.0602C51.7123 29.8136 51.3684 29.8789 51.0361 29.9848C50.4798 30.1359 49.9736 30.4324 49.5697 30.8437C49.1658 31.2551 48.8787 31.7666 48.7378 32.3256L47.7459 36.2025H73.0099C74.1105 36.2102 75.1998 35.9807 76.2036 35.5295C77.0763 35.137 77.8493 34.553 78.4653 33.8208C78.5534 33.7157 78.6304 33.6079 78.7084 33.4986L78.7085 33.4984L78.7155 33.4887C79.4473 34.3335 80.353 35.0104 81.3705 35.473C82.3881 35.9355 83.4935 36.1729 84.6113 36.1688L86.162 36.1834H86.4883L88.039 36.1688C89.1639 36.1731 90.2763 35.9326 91.2989 35.464C92.3215 34.9954 93.2299 34.3099 93.9611 33.455C94.0684 33.6142 94.1842 33.7675 94.3078 33.9144C94.9242 34.6463 95.6971 35.2303 96.5696 35.6231C97.4561 36.0259 98.5207 36.2273 99.7633 36.2273L118.845 36.2127C122.591 36.2127 125.712 33.6086 126.398 30.1604L126.411 30.1502C126.472 29.817 126.51 29.4803 126.527 29.1422V29.1129C126.527 28.9944 126.527 28.8745 126.536 28.7516V17.4311L120.248 17.4296ZM40.7288 28.0202C41.5377 28.0199 42.3284 28.2596 43.0011 28.7087C43.6737 29.1579 44.1981 29.7965 44.5077 30.5438C44.8174 31.291 44.8985 32.1133 44.7408 32.9066C44.583 33.6999 44.1936 34.4286 43.6216 35.0006C43.0497 35.5725 42.3209 35.962 41.5276 36.1197C40.7343 36.2775 39.912 36.1964 39.1648 35.8867C38.4176 35.577 37.779 35.0527 37.3298 34.38C36.8806 33.7074 36.641 32.9166 36.6413 32.1078C36.6436 31.0244 37.075 29.9861 37.841 29.22C38.6071 28.4539 39.6454 28.0226 40.7288 28.0202ZM38.7321 9.16412H38.7233V10.5773H38.3415V8.82617H38.9574L39.3524 9.86195L39.7459 8.82617H40.3619V10.5773H39.9815V9.16412H39.9712L39.4636 10.5773H39.2383L38.7321 9.16412ZM37.1752 10.5773H37.5951V9.16412H38.1291V8.82617H36.6413V9.16412H37.1752V10.5773ZM11.806 60.9874V55.5145H15.5365V61.9047C15.538 61.9208 15.5073 62.9361 15.2279 63.5213C14.8439 64.3858 14.3088 65.175 13.6478 65.8518C12.9551 66.5272 12.1338 67.0566 11.2325 67.4084C10.2461 67.7921 9.19517 67.9828 8.13684 67.9702C8.1149 67.9702 8.09442 67.9512 8.07393 67.9146C8.05491 67.9512 8.03297 67.9702 8.01103 67.9702C6.95317 67.9828 5.90275 67.7921 4.91685 67.4084C4.01513 67.0566 3.19326 66.5273 2.50002 65.8518C1.83954 65.1746 1.30456 64.3855 0.920015 63.5213C0.64205 62.9288 0.611328 61.9208 0.611328 61.9047V55.5145H4.35068V60.9874V61.2156C4.35068 61.2156 4.32288 62.2002 4.6579 62.7049C4.82529 62.9537 5.02174 63.1816 5.24309 63.3838C5.61895 63.7312 6.05797 64.0034 6.53635 64.1855C7.5285 64.5639 8.62522 64.5639 9.61737 64.1855C10.0964 64.0037 10.5359 63.7316 10.9121 63.3838C11.1339 63.182 11.3304 62.9541 11.4973 62.7049C11.8323 62.2002 11.806 61.2156 11.806 61.2156V60.9874ZM132.75 64.8261C132.578 64.654 132.375 64.5164 132.151 64.4208C131.92 64.3223 131.671 64.2716 131.42 64.2716C131.168 64.2716 130.92 64.3223 130.688 64.4208C130.237 64.6142 129.878 64.9735 129.685 65.4244C129.587 65.6547 129.537 65.9022 129.537 66.1523C129.537 66.4023 129.587 66.6498 129.685 66.8801C129.878 67.331 130.237 67.6903 130.688 67.8837C130.92 67.9822 131.168 68.033 131.42 68.033C131.671 68.033 131.92 67.9822 132.151 67.8837C132.602 67.6903 132.961 67.331 133.155 66.8801C133.252 66.6498 133.303 66.4023 133.303 66.1523C133.303 65.9022 133.252 65.6547 133.155 65.4244C133.06 65.2008 132.922 64.9976 132.75 64.8261ZM132.572 53.4207H135.909V59.4598V59.6529V59.6675C135.899 59.8481 135.878 60.028 135.846 60.2059H135.838C135.643 61.1264 135.135 61.9508 134.4 62.5393C133.666 63.1278 132.75 63.4441 131.809 63.4347L130.981 63.4435H130.806L129.978 63.4347C129.037 63.4441 128.121 63.1278 127.387 62.5393C126.653 61.9508 126.145 61.1264 125.949 60.2059C125.917 60.028 125.896 59.8481 125.886 59.6675V59.6529V59.4598V48.8694H129.245V58.1022C129.237 58.4822 129.271 58.862 129.347 59.2345C129.349 59.241 129.351 59.2474 129.354 59.2537C129.358 59.2642 129.362 59.2747 129.362 59.2857C129.447 59.4876 129.567 59.6732 129.716 59.8343C129.864 59.9905 130.042 60.1145 130.24 60.1986C130.43 60.2807 130.635 60.325 130.842 60.3288H130.974C131.182 60.325 131.386 60.2807 131.577 60.1986C131.775 60.1145 131.953 59.9905 132.101 59.8343C132.25 59.6736 132.37 59.4879 132.455 59.2857C132.458 59.2735 132.464 59.262 132.467 59.2502C132.468 59.2451 132.469 59.2399 132.469 59.2345C132.546 58.8621 132.58 58.4823 132.572 58.1022V53.4207ZM68.6442 48.8676H65.2867V63.4388H68.6442V48.8676ZM121.07 54.3251H124.474V59.3972V59.5918L124.473 59.5973L124.473 59.6017L124.474 59.6079C124.464 59.7914 124.443 59.9741 124.411 60.155H124.404C124.204 61.0906 123.688 61.9284 122.941 62.5262C122.194 63.1241 121.264 63.4452 120.307 63.435L109.963 63.4438C109.369 63.4597 108.779 63.3485 108.232 63.1175C107.759 62.904 107.339 62.5871 107.005 62.19C106.94 62.1125 106.88 62.0335 106.825 61.9515C106.248 62.6655 105.441 63.1572 104.542 63.3428C104.542 63.3428 104.264 63.4013 103.925 63.4438L94.1801 63.4365C93.2391 63.4459 92.3238 63.1296 91.5894 62.5411C90.8551 61.9526 90.3469 61.1282 90.1511 60.2077H90.1438C90.1115 60.0297 90.0905 59.8499 90.0809 59.6693V59.6547V59.4616V48.8711H93.4369V57.7953C93.4283 58.1754 93.4627 58.5552 93.5394 58.9276C93.5411 58.9352 93.5438 58.9421 93.5464 58.9487C93.5503 58.9587 93.554 58.9682 93.554 58.9788C93.6391 59.1809 93.7589 59.3666 93.908 59.5274C94.0552 59.6845 94.2336 59.8091 94.4318 59.8931C94.6224 59.9748 94.8271 60.0185 95.0345 60.0219C95.0345 60.0219 103.283 59.9926 103.575 59.9239C103.582 59.9223 103.588 59.9205 103.594 59.9185L103.602 59.9157L103.612 59.912L103.62 59.9089L103.627 59.9063C103.829 59.8193 104.015 59.6975 104.175 59.5464C104.331 59.3966 104.455 59.2164 104.539 59.0168C104.625 58.8276 104.669 58.6224 104.669 58.4148C104.669 58.2072 104.625 58.002 104.539 57.8128C104.455 57.6133 104.331 57.433 104.175 57.2832C104.015 57.1326 103.829 57.0113 103.627 56.9248C103.609 56.9204 103.593 56.9102 103.575 56.9102C103.203 56.8329 102.823 56.798 102.443 56.8063H95.7938L95.785 53.4224L101.81 48.8755H107.765L101.729 53.4107H104.005C104.19 53.421 104.55 53.481 104.55 53.481C106.39 53.8511 107.78 55.5364 107.78 57.5597V58.1449C107.791 58.379 107.821 58.6119 107.869 58.8413C107.922 59.1051 108.049 59.3485 108.235 59.5435C108.376 59.6874 108.549 59.7961 108.74 59.861C108.888 59.9232 109.046 59.9608 109.206 59.9721H119.447C119.658 59.968 119.866 59.9233 120.06 59.8405C120.261 59.7545 120.442 59.628 120.593 59.4689C120.744 59.3057 120.865 59.117 120.951 58.9115C120.953 58.906 120.955 58.9006 120.957 58.8952C120.962 58.8836 120.967 58.8723 120.967 58.8603C121.044 58.4815 121.078 58.0953 121.07 57.7089V54.3251ZM34.3784 57.5429C34.3784 55.5196 32.9886 53.8343 31.1482 53.4642C31.1482 53.4642 30.7897 53.4042 30.6039 53.3939H28.3319L34.3667 48.8587H28.408L22.3835 53.4056L22.3937 56.791H29.0415C29.4216 56.7823 29.8014 56.8167 30.1738 56.8934L30.225 56.908C30.4273 56.9947 30.613 57.116 30.7736 57.2664C30.9304 57.4158 31.0545 57.5962 31.1379 57.796C31.2233 57.9852 31.2675 58.1904 31.2675 58.398C31.2675 58.6056 31.2233 58.8108 31.1379 59C31.0545 59.1999 30.9304 59.3802 30.7736 59.5296C30.6132 59.6812 30.4276 59.8035 30.225 59.891C30.215 59.891 30.2059 59.8953 30.1964 59.8998C30.1893 59.9032 30.1819 59.9067 30.1738 59.9085C29.8013 59.9845 29.4216 60.0188 29.0415 60.011H25.9619H22.0763C21.8888 60.0012 21.7045 59.9581 21.5321 59.8837C21.3345 59.7992 21.1567 59.6747 21.0098 59.5179C20.8602 59.358 20.7403 59.1727 20.6557 58.9708C20.6557 58.9598 20.6517 58.9493 20.6476 58.9387C20.6452 58.9325 20.6427 58.9261 20.6411 58.9196C20.5658 58.5465 20.5319 58.1663 20.5402 57.7858V48.8617H17.1753V59.4448V59.6364V59.6525C17.1852 59.833 17.2057 60.0128 17.2368 60.1909C17.4323 61.1119 17.9406 61.9368 18.6753 62.5256C19.41 63.1145 20.3258 63.4309 21.2673 63.4211H30.5059C30.8453 63.3787 31.1233 63.3202 31.1233 63.3202C32.9637 62.9501 34.3535 61.272 34.3535 59.2429L34.3608 58.4046V58.3724L34.3784 57.5429ZM75.0376 55.2151H75.0449H76.5005V62.9557C76.499 64.3635 75.9386 65.7132 74.9426 66.7081C73.9466 67.703 72.5963 68.2619 71.1885 68.2619H68.9502V64.7508H71.1885C71.6643 64.7504 72.1205 64.5611 72.4569 64.2245C72.7932 63.8879 72.9821 63.4315 72.9821 62.9557V55.2151H75.0376ZM84.4705 54.1684H79.5242V57.3972H79.7583C79.4097 58.3656 79.3768 59.4195 79.6643 60.4078C79.9519 61.396 80.5452 62.2677 81.3589 62.8978C82.1727 63.528 83.1653 63.884 84.194 63.915C85.2228 63.946 86.2349 63.6503 87.0851 63.0703C87.9354 62.4903 88.58 61.6558 88.9265 60.6867C89.273 59.7175 89.3036 58.6635 89.0138 57.6759C88.7241 56.6883 88.1289 55.8179 87.3137 55.1896C86.4985 54.5613 85.5052 54.2074 84.4764 54.1787L84.4705 54.1684ZM84.3359 60.6786C84.0107 60.6786 83.6928 60.5822 83.4224 60.4015C83.152 60.2208 82.9412 59.964 82.8167 59.6635C82.6923 59.3631 82.6597 59.0324 82.7232 58.7135C82.7866 58.3945 82.9432 58.1015 83.1732 57.8715C83.4032 57.6416 83.6962 57.4849 84.0151 57.4215C84.3341 57.358 84.6648 57.3906 84.9652 57.5151C85.2657 57.6395 85.5225 57.8503 85.7032 58.1207C85.8839 58.3911 85.9803 58.709 85.9803 59.0343C85.9799 59.4703 85.8066 59.8883 85.4983 60.1966C85.19 60.5049 84.7719 60.6783 84.3359 60.6786ZM120.786 49.0022C121.013 49.0999 121.22 49.2399 121.394 49.4148L121.399 49.4192C121.573 49.5937 121.713 49.7997 121.81 50.0263C121.909 50.2603 121.96 50.5118 121.96 50.7658C121.96 51.0199 121.909 51.2713 121.81 51.5054C121.614 51.9666 121.247 52.3339 120.786 52.5294C120.552 52.6289 120.3 52.6801 120.046 52.6801C119.792 52.6801 119.541 52.6289 119.307 52.5294C118.845 52.3339 118.478 51.9666 118.283 51.5054C118.184 51.2713 118.133 51.0199 118.133 50.7658C118.133 50.5118 118.184 50.2603 118.283 50.0263C118.479 49.5658 118.846 49.199 119.307 49.0022C119.541 48.9034 119.792 48.8525 120.046 48.8525C120.3 48.8525 120.552 48.9034 120.786 49.0022ZM117.032 49.4154C116.857 49.2401 116.65 49.1001 116.423 49.0028C116.189 48.9042 115.938 48.8534 115.684 48.8534C115.431 48.8534 115.179 48.9042 114.945 49.0028C114.486 49.2004 114.119 49.567 113.921 50.0269C113.823 50.2609 113.772 50.5124 113.772 50.7664C113.772 51.0204 113.823 51.2719 113.921 51.5059C114.118 51.9667 114.485 52.3337 114.945 52.53C115.179 52.6295 115.43 52.6808 115.684 52.6808C115.938 52.6808 116.189 52.6295 116.423 52.53C116.884 52.3344 117.252 51.9672 117.447 51.5059C117.547 51.2721 117.598 51.0205 117.598 50.7664C117.598 50.5123 117.547 50.2607 117.447 50.0269C117.35 49.8003 117.21 49.5942 117.036 49.4197L117.032 49.4154ZM112.068 49.0022C112.295 49.0995 112.501 49.2396 112.675 49.4148L112.679 49.4192C112.854 49.5936 112.994 49.7996 113.092 50.0263C113.191 50.2603 113.242 50.5118 113.242 50.7658C113.242 51.0199 113.191 51.2713 113.092 51.5054C112.895 51.9659 112.528 52.3327 112.068 52.5294C111.834 52.6289 111.582 52.6801 111.328 52.6801C111.074 52.6801 110.823 52.6289 110.589 52.5294C110.127 52.3339 109.76 51.9666 109.565 51.5054C109.465 51.2715 109.414 51.02 109.414 50.7658C109.414 50.5117 109.465 50.2602 109.565 50.0263C109.761 49.5658 110.128 49.199 110.589 49.0022C110.823 48.9034 111.074 48.8525 111.328 48.8525C111.582 48.8525 111.834 48.9034 112.068 49.0022ZM60.4475 49.4154C60.2729 49.2401 60.0663 49.1001 59.8389 49.0028C59.6051 48.9042 59.3539 48.8534 59.1001 48.8534C58.8463 48.8534 58.5951 48.9042 58.3613 49.0028C57.9014 49.2004 57.5348 49.567 57.3372 50.0269C57.2384 50.2609 57.1875 50.5124 57.1875 50.7664C57.1875 51.0204 57.2384 51.2719 57.3372 51.5059C57.5336 51.9667 57.9005 52.3337 58.3613 52.53C58.5949 52.6295 58.8462 52.6808 59.1001 52.6808C59.354 52.6808 59.6053 52.6295 59.8389 52.53C60.3002 52.3344 60.6674 51.9672 60.863 51.5059C60.9624 51.2721 61.0136 51.0205 61.0136 50.7664C61.0136 50.5123 60.9624 50.2607 60.863 50.0269C60.7656 49.8003 60.6261 49.5942 60.4519 49.4197L60.4475 49.4154ZM51.1116 49.0022C51.339 49.0995 51.5456 49.2395 51.7202 49.4148L51.7246 49.4192C51.8988 49.5937 52.0384 49.7997 52.1357 50.0263C52.2351 50.2602 52.2863 50.5117 52.2863 50.7658C52.2863 51.02 52.2351 51.2715 52.1357 51.5054C51.9401 51.9666 51.5729 52.3339 51.1116 52.5294C50.8777 52.6289 50.6262 52.6801 50.3721 52.6801C50.1179 52.6801 49.8664 52.6289 49.6325 52.5294C49.172 52.3327 48.8052 51.9659 48.6084 51.5054C48.5097 51.2713 48.4588 51.0199 48.4588 50.7658C48.4588 50.5118 48.5097 50.2603 48.6084 50.0263C48.8063 49.5666 49.1728 49.2001 49.6325 49.0022C49.8666 48.9034 50.118 48.8525 50.3721 48.8525C50.6261 48.8525 50.8776 48.9034 51.1116 49.0022ZM9.42195 49.4148C9.24791 49.2396 9.04178 49.0995 8.81482 49.0022C8.58078 48.9034 8.32932 48.8525 8.07529 48.8525C7.82126 48.8525 7.5698 48.9034 7.33576 49.0022C6.87526 49.199 6.50842 49.5658 6.31168 50.0263C6.21225 50.2602 6.161 50.5117 6.161 50.7658C6.161 51.02 6.21225 51.2715 6.31168 51.5054C6.50726 51.9666 6.87447 52.3339 7.33576 52.5294C7.56963 52.6289 7.82116 52.6801 8.07529 52.6801C8.32942 52.6801 8.58095 52.6289 8.81482 52.5294C9.27532 52.3327 9.64216 51.9659 9.8389 51.5054C9.93768 51.2713 9.98857 51.0199 9.98857 50.7658C9.98857 50.5118 9.93768 50.2603 9.8389 50.0263C9.74105 49.7996 9.60105 49.5936 9.42634 49.4192L9.42195 49.4148ZM60.3146 58.2449V54.3242H63.7584V58.2303C63.7586 58.9115 63.6246 59.586 63.364 60.2154C63.1035 60.8448 62.7215 61.4167 62.2399 61.8984C61.7583 62.3802 61.1865 62.7623 60.5572 63.023C59.9279 63.2838 59.2534 63.418 58.5722 63.418H56.8547C55.573 63.4194 54.3363 62.945 53.3845 62.0867C52.4326 62.945 51.196 63.4194 49.9143 63.418H48.8903C47.609 63.4193 46.3729 62.9449 45.4216 62.0867C45.3908 62.0553 45.3619 62.0221 45.3352 61.9872C44.7913 62.4459 44.166 62.7982 43.4919 63.0259C42.7072 63.2924 41.8833 63.425 41.0546 63.418H41.0443L35.6211 63.4092V60.2945H41.1014C41.4068 60.2962 41.7094 60.236 41.9909 60.1175C42.2661 60.0067 42.5152 59.8398 42.7224 59.6274C42.9279 59.4147 43.0939 59.167 43.2125 58.8959C43.3379 58.6076 43.4012 58.296 43.3983 57.9816C43.3998 57.6743 43.3365 57.3702 43.2125 57.0892C43.0939 56.8181 42.9279 56.5704 42.7224 56.3577C42.5149 56.1453 42.2659 55.978 41.9909 55.8661C41.7092 55.7483 41.4067 55.6881 41.1014 55.6891H35.6211V52.6066H41.0941C41.9107 52.5993 42.7224 52.7354 43.4919 53.0089C44.196 53.2588 44.847 53.6384 45.4113 54.1281C45.9491 54.6012 46.3796 55.1838 46.6739 55.8369C46.98 56.5274 47.1332 57.276 47.123 58.0313V58.2449C47.123 58.7105 47.3079 59.157 47.6372 59.4863C47.9664 59.8155 48.4129 60.0005 48.8785 60.0005H49.9026C50.3682 60.0005 50.8148 59.8155 51.144 59.4863C51.4732 59.157 51.6582 58.7105 51.6582 58.2449V54.3242H55.0903V58.2449C55.0903 58.7105 55.2753 59.157 55.6045 59.4863C55.9337 59.8155 56.3803 60.0005 56.8459 60.0005H58.559C59.0246 60.0005 59.4712 59.8155 59.8004 59.4863C60.1296 59.157 60.3146 58.7105 60.3146 58.2449ZM99.5819 48.8472L95.7767 51.7132V52.6758L100.862 48.8472H99.5819ZM22.3867 51.7132L26.1919 48.8472H27.472L22.3867 52.6758V51.7132Z" fill="#17245F"/>
</g>
<defs>
<clipPath id="clip0">
<rect width="136" height="78" fill="white"/>
</clipPath>
</defs>
</svg>
