<svg xmlns="http://www.w3.org/2000/svg" width="198" height="103" viewBox="0 0 198 103">
    <g fill="none" fill-rule="evenodd" transform="matrix(-1 0 0 1 198 0)">
        <path fill="#F4F4F4" fill-rule="nonzero" d="M44.599 39.233c-.643-2.49-.9-5.133-.696-7.869C44.792 19.23 54.77 9.52 66.92 8.946c8.47-.397 16.044 3.554 20.673 9.81 1.204 1.624 3.139 2.566 5.155 2.402 2.081-.17 4.191-.257 6.319-.257 8.252 0 16.201 1.292 23.66 3.682 1.899.608 3.95.112 5.482-1.175 3.01-2.53 6.92-4.033 11.175-3.969 8.779.14 16.12 7.155 16.64 15.918.117 1.988-.111 3.91-.625 5.706-.544 1.888-.164 3.934 1.157 5.39 12.403 13.731 19.96 31.929 19.96 51.892H21.629c0-20.823 8.218-39.728 21.579-53.646 1.39-1.433 1.894-3.514 1.39-5.466z"/>
        <ellipse cx="166.138" cy="29.235" fill="#F4F4F4" fill-rule="nonzero" rx="2.543" ry="2.536"/>
        <ellipse cx="166.456" cy="40.964" fill="#F4F4F4" fill-rule="nonzero" rx="4.132" ry="4.121"/>
        <ellipse cx="87.423" cy="18.764" fill="#F4F4F4" fill-rule="nonzero" rx="9.98" ry="9.981"/>
        <ellipse cx="33.266" cy="40.976" fill="#F4F4F4" fill-rule="nonzero" rx="2.543" ry="2.536"/>
        <path fill="#E8E8E8" fill-rule="nonzero" d="M128.711 102.144c0-33.449-27.063-60.561-60.45-60.561-13.287 0-25.574 4.296-35.552 11.576-.96.702-2.24.778-3.27.192-1.801-1.033-3.945-1.543-6.217-1.314-4.887.498-8.82 4.488-9.259 9.384-.235 2.64.516 5.087 1.922 7.038.687.95.706 2.231.121 3.245-5.205 8.944-8.19 19.348-8.19 30.446h120.895v-.006z"/>
        <ellipse cx="44.886" cy="63.394" fill="#D0CFCF" fill-rule="nonzero" rx="6.694" ry="6.696" transform="rotate(1 44.886 63.394)"/>
        <path fill="#E7E5E5" fill-rule="nonzero" d="M116.715 46.804c3.23-.71 5.268-3.905 4.552-7.135-.717-3.23-3.917-5.273-7.147-4.563-3.23.711-5.269 3.906-4.552 7.136.716 3.23 3.916 5.273 7.147 4.562z"/>
        <circle cx="135.053" cy="55.663" r="2.819" fill="#FFF" fill-rule="nonzero"/>
        <path fill="#E5E5E5" fill-rule="nonzero" d="M197.765 102.182H.469c1.617-2.227 4.073-3.524 6.664-3.524H191.1c2.59 0 5.04 1.297 6.664 3.524z"/>
        <path fill="#B9B7B7" d="M48.303 57.583c-.551 1.547-2.087 5.667-4.607 12.36 3.311.455 5.663-.658 7.054-3.34 1.808-3.485.503-7.351-2.447-9.02z"/>
        <g fill-rule="nonzero">
            <path fill="#151F33" d="M126.05 49.282c0-4.732-4.023-8.575-8.978-8.575s-8.978 3.843-8.978 8.575c0 4.732 4.023 8.575 8.978 8.575h4.49c4.954 0 8.977-3.843 8.977-8.575h-4.489zM65.41 49.282c0-4.732-4.024-8.575-8.979-8.575-4.955 0-8.978 3.843-8.978 8.575 0 4.732 4.023 8.575 8.978 8.575h4.49c4.954 0 8.977-3.843 8.977-8.575H65.41z" transform="translate(22 44)"/>
            <path fill="#151F33" d="M133.957 49.282H34.266l8.978-12.877h107.504c1.786 0 2.858 1.914 1.864 3.338-4.148 5.964-11.153 9.539-18.655 9.539z" transform="translate(22 44)"/>
            <path fill="#00D170" d="M76.888 0H52.455L40.417 36.405H92.81L82.775 4.57C82.185 1.9 79.731 0 76.888 0z" transform="translate(22 44)"/>
            <path fill="#151F33" d="M76.966 3.827H55.282c-3.526 0-2.625 2.226-3.62 5.46l-6.834 22.208c-.76 2.448 1.165 4.91 3.852 4.91h39.811L78.94 5.37c-.202-.89-1.025-1.543-1.973-1.543z" transform="translate(22 44)"/>
            <path fill="#00D170" d="M110.33 36.405H71.624L64.602 4.57C64.012 1.914 61.557 0 58.715 0h-9.6C40.355 0 32.62 5.415 29.98 13.396l-7.611 23.01H7.798c-1.507 0-2.905.711-3.744 1.913l-2.998 4.287c-1.988 2.849.156 6.676 3.744 6.676h88.755c7.503 0 14.493-3.575 18.655-9.539.979-1.424-.093-3.338-1.88-3.338z" transform="translate(22 44)"/>
            <path fill="#151F33" d="M58.7 3.827h-9.18c-3.527 0-6.633 2.226-7.628 5.46l-6.834 22.208c-.761 2.448 1.165 4.91 3.852 4.91h25.94c1.274 0 2.221-1.112 1.973-2.3L60.78 5.446c-.218-.935-1.072-1.618-2.082-1.618z" transform="translate(22 44)"/>
            <g transform="translate(22 44) translate(71.452 40.055)">
                <ellipse cx="9.677" cy="9.227" fill="#818281" rx="8.978" ry="8.575"/>
                <path fill="#151F33" d="M18.67 9.227c0-4.732-4.022-8.574-8.977-8.574S.715 4.495.715 9.227c0 4.733 4.023 8.575 8.978 8.575h4.489c4.955 0 8.978-3.842 8.978-8.575h-4.49z"/>
                <ellipse cx="9.677" cy="9.227" fill="#FFF" rx="4.489" ry="4.287"/>
                <path fill="#00D170" d="M7.44 9.227c0-2.002 1.43-3.664 3.371-4.139-.357-.089-.73-.148-1.118-.148-2.486 0-4.49 1.914-4.49 4.287 0 2.374 2.004 4.288 4.49 4.288.388 0 .76-.06 1.118-.149-1.942-.49-3.37-2.15-3.37-4.139z"/>
            </g>
            <g transform="translate(22 44) translate(10.873 40.055)">
                <path fill="#151F33" d="M18.609 9.227c0-4.732-4.024-8.574-8.979-8.574C4.675.653.652 4.495.652 9.227c0 4.733 4.023 8.575 8.978 8.575h4.49c4.955 0 8.978-3.842 8.978-8.575h-4.49z"/>
                <ellipse cx="9.615" cy="9.227" fill="#FFF" rx="4.489" ry="4.287"/>
                <path fill="#00D170" d="M7.378 9.227c0-2.002 1.43-3.664 3.37-4.139-.356-.089-.73-.148-1.118-.148-2.485 0-4.489 1.914-4.489 4.287 0 2.374 2.004 4.288 4.49 4.288.388 0 .76-.06 1.118-.149-1.942-.49-3.37-2.15-3.37-4.139z"/>
            </g>
            <path fill="#FFF" d="M141.77 40.692h-22.461c-1.243 0-2.252.965-2.252 2.152 0 1.186 1.01 2.15 2.252 2.15h22.46c1.243 0 2.253-.964 2.253-2.15 0-1.187-1.01-2.152-2.252-2.152z" transform="translate(22 44)"/>
            <path fill="#00D170" d="M141.77 40.692h-4.49c1.243 0 2.253.965 2.253 2.152 0 1.186-1.01 2.15-2.252 2.15h4.489c1.242 0 2.252-.964 2.252-2.15 0-1.187-1.01-2.152-2.252-2.152z" transform="translate(22 44)"/>
        </g>
    </g>
</svg>
